<svg xmlns="http://www.w3.org/2000/svg" version="1.1" xmlns:xlink="http://www.w3.org/1999/xlink" xmlns:svgjs="http://svgjs.dev/svgjs" width="1000" height="1000"><g clip-path="url(#SvgjsClipPath1172)"><rect width="1000" height="1000" fill="#f8f8f8"></rect><g transform="matrix(4.724502450835646,0,0,4.724502450835646,100,100)"><svg xmlns="http://www.w3.org/2000/svg" version="1.1" xmlns:xlink="http://www.w3.org/1999/xlink" xmlns:svgjs="http://svgjs.dev/svgjs" width="169.33" height="169.33"><svg id="logo-dv-icon-blue-dark" xmlns="http://www.w3.org/2000/svg" viewBox="0 0 169.33 169.33"><defs><style>.e{fill:#000627;}</style><clipPath id="SvgjsClipPath1172"><rect width="1000" height="1000" x="0" y="0" rx="100" ry="100"></rect></clipPath></defs><path class="e" d="M111.74,164.91c-8.19,2.76-16.95,4.31-26.05,4.41-.34,0-.68,0-1.02,0H0v-84.66c0-9.47,1.56-18.57,4.42-27.07l15.43,15.43c-.68,3.78-1.03,7.67-1.03,11.64v65.85h65.85c3.97,0,7.86-.35,11.64-1.03l15.43,15.43Z"></path><path class="e" d="M169.33,84.66c0,30.23-15.84,56.75-39.67,71.73l-13.75-13.75c20.6-11.12,34.61-32.92,34.61-57.98,0-36.37-29.48-65.85-65.85-65.85-25.06,0-46.86,14-57.98,34.61l-13.75-13.75C27.91,15.84,54.44,0,84.66,0c46.76,0,84.66,37.91,84.66,84.66Z"></path><path class="e" d="M92.02,110.62v.03h-1.2c.4,0,.8,0,1.2-.03Z"></path><path class="e" d="M98.29,110.62v.03h-1.2c.4,0,.8,0,1.2-.03Z"></path><path class="e" d="M85.37,166.21h0s-1.41,0-1.41,0c.47,0,.94,0,1.41,0Z"></path><path class="e" d="M85.37,166.21h0s-1.41,0-1.41,0c.47,0,.94,0,1.41,0Z"></path></svg></svg></g></g></svg>