<?xml version="1.0" standalone="no"?>
<!DOCTYPE svg PUBLIC "-//W3C//DTD SVG 20010904//EN"
 "http://www.w3.org/TR/2001/REC-SVG-20010904/DTD/svg10.dtd">
<svg version="1.0" xmlns="http://www.w3.org/2000/svg"
 width="270.000000pt" height="270.000000pt" viewBox="0 0 270.000000 270.000000"
 preserveAspectRatio="xMidYMid meet">
<metadata>
Created by potrace 1.14, written by Peter Selinger 2001-2017
</metadata>
<g transform="translate(0.000000,270.000000) scale(0.100000,-0.100000)"
fill="#000000" stroke="none">
<path d="M648 2045 c-2 -2 -23 -5 -48 -9 -141 -19 -270 -81 -376 -183 -140
-133 -215 -307 -216 -498 -1 -302 190 -567 478 -661 79 -26 103 -29 214 -29
95 0 139 5 185 19 33 11 62 20 65 21 3 0 23 9 45 20 138 65 272 200 332 335
27 60 52 139 55 170 1 21 -141 348 -162 372 -3 5 -6 -65 -7 -155 -2 -181 -10
-233 -55 -326 -57 -119 -213 -246 -327 -266 -19 -3 -38 -8 -42 -11 -15 -9
-154 -5 -204 6 -171 38 -322 179 -376 349 -38 119 -23 274 36 392 35 69 138
173 205 208 61 32 158 63 171 56 4 -3 10 -2 13 3 2 4 23 7 45 6 22 0 42 4 43
10 2 6 3 47 3 91 l0 80 -37 1 c-21 1 -39 0 -40 -1z"/>
<path d="M873 1917 c-1 -73 -2 -150 -2 -172 l-1 -40 -123 -1 c-113 -1 -127 -3
-187 -31 -79 -36 -144 -99 -179 -173 -35 -74 -39 -199 -10 -277 27 -70 94
-142 171 -183 59 -32 69 -34 158 -34 76 0 104 5 141 22 68 32 140 101 174 168
l30 59 3 397 3 396 -89 0 -89 0 0 -131z m-2 -414 c3 -112 -2 -197 -15 -228
-46 -109 -188 -146 -286 -73 -95 70 -94 227 3 298 41 31 67 36 190 39 l107 2
1 -38z"/>
<path d="M1218 2033 c10 -21 14 -32 177 -383 70 -151 144 -312 166 -358 21
-46 39 -85 39 -86 0 -2 21 -48 46 -102 26 -55 83 -178 128 -274 l81 -176 91
-1 c49 -1 95 1 100 5 11 7 31 48 119 242 29 63 68 149 88 190 19 41 73 158
120 260 47 102 135 292 195 422 61 130 113 246 117 257 6 20 3 21 -90 21 l-96
0 -31 -67 c-17 -38 -52 -115 -79 -171 -27 -57 -49 -105 -49 -107 0 -1 -22 -49
-49 -106 -26 -57 -74 -160 -106 -229 -31 -69 -96 -208 -142 -310 -47 -102 -87
-186 -88 -188 -1 -1 -75 154 -163 345 -88 191 -179 389 -202 438 -23 50 -57
122 -75 160 -17 39 -49 107 -70 153 l-39 82 -98 0 c-89 0 -97 -2 -90 -17z"/>
<path d="M2086 1958 c-24 -51 -78 -169 -121 -263 -43 -93 -81 -174 -86 -179
-17 -18 -8 -51 39 -150 l47 -100 54 120 c30 65 76 164 101 219 110 234 200
432 200 440 0 3 -43 5 -95 5 l-96 0 -43 -92z"/>
</g>
</svg>
