<?xml version="1.0" encoding="UTF-8"?><svg id="logo-full-blue-light" xmlns="http://www.w3.org/2000/svg" viewBox="0 0 383.07 230.96"><defs><style>.e{fill:#0042ff;}.g{fill:#0042ff;}</style></defs><path class="e" d="M237.49,164.91c-8.19,2.76-16.95,4.31-26.05,4.41-.34,0-.68,0-1.02,0h-84.66v-84.66c0-9.47,1.56-18.57,4.42-27.07l15.43,15.43c-.68,3.78-1.03,7.67-1.03,11.64v65.85h65.85c3.97,0,7.86-.35,11.64-1.03l15.43,15.43Z"/><path class="e" d="M295.09,84.66c0,30.23-15.84,56.75-39.67,71.73l-13.75-13.75c20.6-11.12,34.61-32.92,34.61-57.98,0-36.37-29.48-65.85-65.85-65.85-25.06,0-46.86,14-57.98,34.61l-13.75-13.75C153.67,15.84,180.2,0,210.42,0c46.76,0,84.66,37.91,84.66,84.66Z"/><path class="e" d="M217.78,110.62v.03h-1.2c.4,0,.8,0,1.2-.03Z"/><path class="e" d="M224.05,110.62v.03h-1.2c.4,0,.8,0,1.2-.03Z"/><path class="e" d="M211.13,166.21h0s-1.41,0-1.41,0c.47,0,.94,0,1.41,0Z"/><path class="e" d="M211.13,166.21h0s-1.41,0-1.41,0c.47,0,.94,0,1.41,0Z"/><path class="g" d="M1.08,230.39c-.31,0-.57-.1-.78-.31s-.31-.46-.31-.78v-26.04c0-.34.1-.6.31-.79.2-.19.46-.29.78-.29h6.5c2.07,0,3.97.34,5.69,1.03,1.72.69,3.21,1.66,4.48,2.92,1.26,1.26,2.24,2.75,2.93,4.46.69,1.71,1.03,3.6,1.03,5.67s-.34,3.97-1.03,5.69c-.69,1.72-1.66,3.21-2.93,4.48s-2.76,2.24-4.48,2.93c-1.72.69-3.62,1.03-5.69,1.03H1.08ZM2.17,228.44h5.42c2.34,0,4.4-.53,6.19-1.59,1.79-1.06,3.2-2.5,4.23-4.33,1.02-1.83,1.54-3.91,1.54-6.25s-.51-4.41-1.54-6.23c-1.02-1.82-2.43-3.26-4.23-4.32s-3.86-1.59-6.19-1.59H2.17v24.31Z"/><path class="g" d="M33.99,230.39c-.31,0-.57-.1-.78-.31s-.31-.46-.31-.78v-26.04c0-.31.1-.57.31-.78s.46-.31.78-.31.57.1.78.31c.2.21.31.46.31.78v26.04c0,.31-.1.57-.31.78-.21.2-.46.31-.78.31Z"/><path class="g" d="M81.92,230.39c-.31,0-.57-.1-.78-.31s-.31-.46-.31-.78v-26.04c0-.31.1-.57.31-.78s.46-.31.78-.31.57.1.78.31c.2.21.31.46.31.78v26.04c0,.31-.1.57-.31.78-.21.2-.46.31-.78.31Z"/><path class="g" d="M93.54,204.13c-.29,0-.52-.09-.7-.27s-.27-.42-.27-.7.09-.52.27-.7.42-.27.7-.27h20.44c.29,0,.52.09.7.27s.27.42.27.7-.09.52-.27.7-.42.27-.7.27h-20.44ZM103.77,230.39c-.31,0-.57-.1-.78-.31s-.31-.46-.31-.78v-27.12h2.17v27.12c0,.31-.1.57-.31.78s-.46.31-.78.31Z"/><path class="g" d="M122.69,230.39c-.46,0-.78-.18-.96-.54s-.19-.7-.02-1.01l10.94-25.9c.19-.51.54-.76,1.05-.76s.83.25,1.05.76l10.98,25.9c.19.34.18.68-.04,1.03s-.53.52-.94.52c-.24,0-.44-.05-.6-.16-.16-.11-.29-.28-.42-.52l-10.62-25.32h1.16l-10.58,25.32c-.1.24-.23.42-.4.52-.17.11-.37.16-.61.16Z"/><path class="g" d="M156.43,230.39c-.29,0-.54-.1-.76-.31-.22-.21-.32-.46-.32-.78v-26.04c0-.31.11-.57.32-.78.22-.2.47-.31.76-.31.31,0,.57.1.78.31.2.21.31.46.31.78v25.17h14.84c.34,0,.6.09.79.27s.29.42.29.7-.1.52-.29.71-.46.27-.79.27h-15.93Z"/><path class="g" d="M208.47,230.39c-.46,0-.78-.23-.98-.69l-10.83-25.75c-.24-.55-.25-.99-.02-1.3.23-.31.55-.47.96-.47.46,0,.81.25,1.05.76l10.4,24.89h-1.05l10.26-24.74c.12-.34.28-.57.47-.7.19-.13.43-.2.72-.2.43,0,.72.18.87.54s.12.77-.07,1.23l-10.8,25.75c-.12.27-.27.45-.45.54-.18.1-.36.14-.52.14Z"/><path class="g" d="M231.23,230.39c-.31,0-.57-.1-.78-.31s-.31-.46-.31-.78v-26.04c0-.31.1-.57.31-.78s.46-.31.78-.31.57.1.78.31c.2.21.31.46.31.78v26.04c0,.31-.1.57-.31.78-.21.2-.46.31-.78.31Z"/><path class="g" d="M253.57,219.15v.02h.01v-.02Z"/><path class="g" d="M262.31,229.92c-.18.31-.55.47-1.1.47-.27,0-.46-.06-.6-.16-.13-.11-.25-.25-.38-.42l-6.65-10.64v-.02s-.01-2.15-.01-2.15c1.09-.07,2.06-.34,2.93-.79,1.02-.54,1.83-1.28,2.42-2.22.59-.94.88-2.02.88-3.25s-.29-2.36-.88-3.32c-.59-.97-1.4-1.72-2.42-2.26-1.03-.54-2.21-.81-3.56-.81h-5.82v24.95c0,.32-.09.58-.28.78-.2.21-.46.31-.8.31-.31,0-.57-.1-.78-.31s-.3-.46-.3-.78v-26.04c0-.33.1-.6.3-.79.21-.19.47-.29.78-.29h6.9c1.76,0,3.32.37,4.68,1.1,1.36.74,2.42,1.74,3.19,3.02.77,1.27,1.16,2.75,1.16,4.44s-.39,3.09-1.16,4.37-1.83,2.27-3.19,3c-.54.29-1.12.52-1.72.69l6.21,9.93c.32.48.38.88.2,1.19Z"/><path class="g" d="M270.23,204.13c-.29,0-.52-.09-.7-.27s-.27-.42-.27-.7.09-.52.27-.7.42-.27.7-.27h20.44c.29,0,.52.09.7.27s.27.42.27.7-.09.52-.27.7-.42.27-.7.27h-20.44ZM280.46,230.39c-.31,0-.57-.1-.78-.31s-.31-.46-.31-.78v-27.12h2.17v27.12c0,.31-.1.57-.31.78s-.46.31-.78.31Z"/><path class="g" d="M312.06,230.96c-2.12,0-3.99-.42-5.62-1.25-1.62-.83-2.9-1.99-3.83-3.47-.93-1.48-1.39-3.17-1.39-5.07v-17.92c0-.34.1-.6.31-.79.2-.19.46-.29.78-.29.34,0,.6.1.79.29.19.19.29.46.29.79v17.92c0,1.49.37,2.81,1.1,3.96.73,1.14,1.76,2.04,3.07,2.69s2.81.98,4.5.98,3.21-.33,4.51-.98c1.3-.65,2.32-1.55,3.07-2.69.75-1.14,1.12-2.46,1.12-3.96v-17.92c0-.34.1-.6.31-.79.2-.19.46-.29.78-.29.34,0,.6.1.79.29.19.19.29.46.29.79v17.92c0,1.9-.46,3.59-1.39,5.07-.93,1.48-2.21,2.64-3.85,3.47-1.64.83-3.52,1.25-5.63,1.25Z"/><path class="g" d="M336.66,230.39c-.31,0-.57-.1-.78-.31s-.31-.46-.31-.78v-26.04c0-.31.1-.57.31-.78s.46-.31.78-.31h17.37c.29,0,.54.1.76.31.22.21.33.46.33.78,0,.29-.11.54-.33.76s-.47.33-.76.33h-16.29v10.83h11.96c.31,0,.57.1.78.31s.31.46.31.78-.1.58-.31.79c-.21.22-.46.33-.78.33h-11.96v10.84h16.29c.29,0,.54.11.76.33s.33.47.33.76c0,.31-.11.57-.33.78-.22.2-.47.31-.76.31h-17.37Z"/><path class="g" d="M374.22,230.75c-1.52,0-2.91-.21-4.17-.63-1.26-.42-2.35-1.02-3.27-1.81-.92-.78-1.64-1.7-2.17-2.76-.14-.29-.15-.57-.02-.83.13-.26.36-.45.67-.54.26-.1.53-.08.79.04.26.12.47.31.61.58.43.77,1,1.45,1.72,2.02.71.58,1.55,1.02,2.53,1.32.98.3,2.08.45,3.3.45,1.37,0,2.56-.23,3.56-.69,1-.46,1.77-1.13,2.31-2.02s.81-1.97.81-3.25c0-1.59-.57-2.93-1.71-4.03-1.14-1.09-2.88-1.8-5.22-2.11-2.7-.38-4.8-1.26-6.32-2.62-1.52-1.36-2.28-3.02-2.28-4.97,0-1.42.35-2.66,1.07-3.72.71-1.06,1.71-1.88,3-2.47,1.29-.59,2.77-.88,4.46-.88,1.25,0,2.41.2,3.47.61,1.06.41,1.99.95,2.78,1.61.79.66,1.41,1.35,1.84,2.08.17.27.21.55.13.85-.08.3-.28.51-.6.63-.27.1-.53.1-.79.02-.26-.08-.48-.25-.65-.49-.34-.51-.77-1-1.3-1.48-.53-.48-1.19-.88-1.99-1.19-.79-.31-1.76-.47-2.89-.47-1.97,0-3.53.45-4.66,1.34-1.13.89-1.7,2.16-1.7,3.79,0,.87.23,1.66.7,2.37.47.71,1.21,1.32,2.22,1.82,1.01.51,2.3.89,3.86,1.16,3.11.53,5.34,1.49,6.7,2.87,1.36,1.38,2.04,3.15,2.04,5.29,0,1.25-.21,2.38-.63,3.4-.42,1.01-1.02,1.87-1.81,2.56-.78.7-1.72,1.23-2.8,1.61-1.08.37-2.29.56-3.61.56Z"/><path class="g" d="M69.51,217.49c.01.05.02.11.02.17v9.22c0,.15-.01.28-.03.4-.03.12-.1.24-.22.36-1.18,1.18-2.55,2-4.1,2.44-1.55.45-3.15.67-4.79.67-1.92,0-3.73-.38-5.43-1.14-1.7-.76-3.2-1.8-4.5-3.14-1.3-1.34-2.32-2.88-3.07-4.62-.75-1.75-1.12-3.61-1.12-5.58s.36-3.8,1.09-5.55c.72-1.74,1.72-3.29,3.01-4.62,1.29-1.34,2.79-2.39,4.5-3.14,1.71-.76,3.55-1.14,5.52-1.14,1.67,0,3.24.26,4.74.79,1.49.53,2.88,1.34,4.19,2.42.21.17.32.41.32.71s-.1.56-.29.79-.46.34-.79.34c-.1,0-.2-.01-.29-.05-.1-.04-.2-.08-.29-.14-.1-.06-.21-.14-.33-.24-.96-.87-2.06-1.49-3.28-1.88-1.23-.38-2.56-.57-3.98-.57-1.61,0-3.14.33-4.58.99-1.45.66-2.72,1.56-3.83,2.71-1.11,1.14-1.98,2.45-2.6,3.92-.63,1.47-.94,3.02-.94,4.66s.31,3.27.94,4.76c.62,1.5,1.48,2.81,2.58,3.94,1.1,1.13,2.37,2.02,3.81,2.65,1.45.64,2.99.96,4.62.96,1.42,0,2.75-.21,3.99-.65,1.06-.36,2.05-.89,2.98-1.59v-8.68c0-.55.45-1,1-1h.09c.06,0,.11,0,.16.01.03,0,.05.01.08.01.06.01.11.02.16.04.27.09.49.29.6.55.01.03.03.07.03.1.02.04.03.08.03.12Z"/><path class="g" d="M68.61,216.67s-.1-.01-.16-.01h.08s.05,0,.08.01Z"/><path class="g" d="M68.61,216.67s-.1-.01-.16-.01h.08s.05,0,.08.01Z"/></svg>
