<?xml version="1.0" encoding="UTF-8"?><svg id="logo-d-icon-blue-dark" xmlns="http://www.w3.org/2000/svg" viewBox="0 0 156.39 166.22"><defs><style>.e{fill:#000627;}</style></defs><path class="e" d="M156.39,84.66c0,30.23-15.84,56.75-39.67,71.73l-13.75-13.75c20.6-11.12,34.61-32.92,34.61-57.98,0-36.37-29.48-65.85-65.85-65.85-25.06,0-46.86,14-57.98,34.61L0,39.67C14.98,15.84,41.5,0,71.73,0c46.76,0,84.66,37.91,84.66,84.66Z"/><path class="e" d="M79.09,110.62v.03h-1.2c.4,0,.8,0,1.2-.03Z"/><path class="e" d="M85.35,110.62v.03h-1.2c.4,0,.8,0,1.2-.03Z"/><path class="e" d="M72.43,166.21h0s-1.41,0-1.41,0c.47,0,.94,0,1.41,0Z"/><path class="e" d="M72.43,166.21h0s-1.41,0-1.41,0c.47,0,.94,0,1.41,0Z"/></svg>
