<?xml version="1.0" encoding="UTF-8"?><svg id="logo-v-icon-blue-light" xmlns="http://www.w3.org/2000/svg" viewBox="0 0 111.74 111.73"><defs><style>.e{fill:#0042ff;}</style></defs><path class="e" d="M111.74,107.32c-8.19,2.76-16.95,4.31-26.05,4.41-.34,0-.68,0-1.02,0H0V27.07C0,17.6,1.56,8.5,4.42,0l15.43,15.43c-.68,3.78-1.03,7.67-1.03,11.64v65.85h65.85c3.97,0,7.86-.35,11.64-1.03l15.43,15.43Z"/><path class="e" d="M92.02,53.03v.03h-1.2c.4,0,.8,0,1.2-.03Z"/><path class="e" d="M98.29,53.03v.03h-1.2c.4,0,.8,0,1.2-.03Z"/><path class="e" d="M85.37,108.62h0s-1.41,0-1.41,0c.47,0,.94,0,1.41,0Z"/><path class="e" d="M85.37,108.62h0s-1.41,0-1.41,0c.47,0,.94,0,1.41,0Z"/></svg>
