<?xml version="1.0" encoding="utf-8"?>
<!-- Generator: Adobe Illustrator 22.1.0, SVG Export Plug-In . SVG Version: 6.00 Build 0)  -->
<svg version="1.1" id="Ebene_1" xmlns="http://www.w3.org/2000/svg" xmlns:xlink="http://www.w3.org/1999/xlink" x="0px" y="0px"
	 viewBox="0 0 850.4 850.4" style="enable-background:new 0 0 850.4 850.4;" xml:space="preserve">
<style type="text/css">
	.st0{fill:#FFFFFF;}
	.st1{fill:url(#SVGID_1_);}
	.st2{fill:url(#SVGID_2_);}
	.st3{fill:url(#SVGID_3_);}
	.st4{fill:url(#SVGID_4_);}
	.st5{fill:url(#SVGID_5_);}
	.st6{fill:url(#SVGID_6_);}
	.st7{fill:url(#SVGID_7_);}
	.st8{fill:url(#SVGID_8_);}
	.st9{fill:url(#SVGID_9_);}
	.st10{fill:url(#SVGID_10_);}
	.st11{fill:url(#SVGID_11_);}
	.st12{fill:url(#SVGID_12_);}
	.st13{fill:url(#SVGID_13_);}
	.st14{fill:url(#SVGID_14_);}
	.st15{fill:url(#SVGID_15_);}
</style>
<g>
	<path d="M13,683.1V559.4c0-1.2,0.6-1.8,1.8-1.8h26.7c9,0,16.1,3,21.3,9c5.2,6,7.8,14.2,7.8,24.5v60.4c0,10.3-2.6,18.5-7.8,24.5
		c-5.2,6-12.3,9-21.3,9H14.8C13.6,684.9,13,684.3,13,683.1z M23.4,676.3h18.2c5.9-0.1,10.6-2.4,14.1-6.8c3.5-4.4,5.2-10.5,5.2-18.3
		v-59.8c0-7.9-1.7-14.1-5.2-18.5c-3.5-4.5-8.2-6.7-14.3-6.7h-18c-0.5,0-0.7,0.2-0.7,0.7v108.8C22.6,676.1,22.9,676.3,23.4,676.3z"/>
	<path d="M95.4,572.6c-1.5-1.5-2.2-3.4-2.2-5.7c0-2.3,0.7-4.2,2.2-5.6c1.5-1.5,3.2-2.2,5.3-2.2c2.2,0,3.9,0.7,5.3,2.2
		c1.3,1.5,2,3.3,2,5.6c0,2.4-0.7,4.4-2,5.8c-1.3,1.5-3.1,2.2-5.3,2.2C98.6,574.9,96.8,574.1,95.4,572.6z M95.9,683.1v-88
		c0-1.2,0.6-1.8,1.8-1.8h6c1.2,0,1.8,0.6,1.8,1.8v88c0,1.2-0.6,1.8-1.8,1.8h-6C96.5,684.9,95.9,684.3,95.9,683.1z"/>
	<path d="M174.1,593.2h6.2c1.2,0,1.8,0.6,1.8,1.8v88.8c0,12.5-2.9,22-8.5,28.6c-5.7,6.5-14.9,9.6-27.5,9.1c-1.2,0-1.8-0.6-1.8-1.8
		v-4.9c0-1.2,0.8-1.8,2.4-1.8c9.2,0,15.8-2.5,19.7-7.5c3.9-5,5.9-12.4,5.9-22.4v-6.9c0-0.4-0.1-0.6-0.4-0.6
		c-0.2-0.1-0.4,0.1-0.5,0.5c-2.1,3.3-4.7,5.7-7.9,7.4c-3.2,1.6-6.8,2.5-10.6,2.5c-7.5,0-13.5-2.5-17.9-7.5c-4.4-5-6.6-11.6-6.6-19.7
		v-39.5c0-8.1,2.2-14.7,6.6-19.7c4.4-5,10.4-7.5,17.9-7.5c3.9,0,7.5,0.9,10.7,2.5c3.3,1.7,5.9,4.1,7.8,7.3c0.2,0.2,0.5,0.4,0.6,0.4
		s0.3-0.2,0.3-0.5V595C172.3,593.8,172.9,593.2,174.1,593.2z M167.6,672c3.2-3.5,4.7-8.1,4.7-13.8v-38.6c0-5.7-1.6-10.3-4.7-13.9
		c-3.2-3.6-7.2-5.4-12.2-5.4c-5.1,0-9.3,1.8-12.5,5.4c-3.3,3.6-4.9,8.2-4.9,13.9v38.6c0,5.6,1.6,10.2,4.9,13.7
		c3.3,3.6,7.5,5.4,12.5,5.4C160.4,677.3,164.4,675.5,167.6,672z"/>
	<path d="M206,572.6c-1.5-1.5-2.2-3.4-2.2-5.7c0-2.3,0.7-4.2,2.2-5.6c1.5-1.5,3.2-2.2,5.3-2.2c2.2,0,3.9,0.7,5.3,2.2
		c1.3,1.5,2,3.3,2,5.6c0,2.4-0.7,4.4-2,5.8c-1.3,1.5-3.1,2.2-5.3,2.2C209.2,574.9,207.4,574.1,206,572.6z M206.5,683.1v-88
		c0-1.2,0.6-1.8,1.8-1.8h6c1.2,0,1.8,0.6,1.8,1.8v88c0,1.2-0.6,1.8-1.8,1.8h-6C207.1,684.9,206.5,684.3,206.5,683.1z"/>
	<path d="M268.9,600.9h-14.5c-0.5,0-0.7,0.2-0.7,0.7v58.6c0,6.1,1,10.3,3.1,12.6c2.1,2.4,5.3,3.5,9.8,3.5h1.8c1.2,0,1.8,0.6,1.8,1.8
		v4.9c0,1.2-0.6,1.8-1.8,1.8h-3.6c-6.8,0-11.9-1.6-15.4-4.7c-3.5-3.2-5.2-9-5.2-17.6v-60.9c0-0.5-0.2-0.7-0.7-0.7H236
		c-1.2,0-1.8-0.6-1.8-1.8v-4c0-1.2,0.6-1.8,1.8-1.8h7.5c0.5,0,0.7-0.2,0.7-0.7v-20.4c0-1.2,0.6-1.8,1.8-1.8h5.8
		c1.2,0,1.8,0.6,1.8,1.8v20.4c0,0.5,0.2,0.7,0.7,0.7h14.5c1.2,0,1.8,0.6,1.8,1.8v4C270.7,600.3,270.1,600.9,268.9,600.9z"/>
	<path d="M332.6,600.1c4.7,5.5,7,12.9,7,22.1v60.9c0,1.2-0.6,1.8-1.8,1.8h-6c-1.2,0-1.8-0.6-1.8-1.8v-6.5c0-0.4-0.1-0.6-0.3-0.6
		c-0.2-0.1-0.4,0-0.6,0.3c-4.5,6.8-11.5,10.2-21.1,10.2c-6.4,0-12-1.9-16.6-5.6c-4.7-3.8-7-10.4-7-19.8c0-10.1,2.8-17.5,8.4-22.2
		c5.6-4.7,13-7.1,22.4-7.1h14.2c0.5,0,0.7-0.2,0.7-0.7v-8.4c0-6.8-1.5-12.2-4.5-16.2c-3-4-7.1-6-12.5-6c-4.2,0-7.9,1.3-11,4
		c-3.1,2.7-4.9,6.1-5.4,10.4c0,1.2-0.6,1.8-1.8,1.8l-6.5-0.4c-0.6,0-1.1-0.2-1.4-0.5c-0.3-0.4-0.4-0.8-0.3-1.3
		c0.7-6.8,3.6-12.2,8.5-16.4c5-4.1,11-6.2,18-6.2C321.5,591.8,327.9,594.5,332.6,600.1z M324.1,672.5c3.9-3.5,5.9-8.5,5.9-14.9
		v-17.3c0-0.5-0.2-0.7-0.7-0.7h-14.2c-6.3,0-11.4,1.7-15.2,5.2c-3.8,3.5-5.7,8.6-5.7,15.4c0,5.9,1.5,10.4,4.4,13.3
		c2.9,2.9,6.7,4.4,11.5,4.4C315.4,677.8,320.1,676,324.1,672.5z"/>
	<path d="M360.7,683.1V559.4c0-1.2,0.6-1.8,1.8-1.8h6c1.2,0,1.8,0.6,1.8,1.8v123.7c0,1.2-0.6,1.8-1.8,1.8h-6
		C361.3,684.9,360.7,684.3,360.7,683.1z"/>
	<path d="M451.1,683.3l-26.6-123.7v-0.4c0-1.1,0.5-1.6,1.6-1.6h6.7c1.2,0,1.9,0.5,2,1.6l21.5,106.9c0.1,0.4,0.2,0.5,0.4,0.5
		c0.1,0,0.2-0.2,0.4-0.5l21.1-106.9c0.2-1.1,0.9-1.6,2-1.6h6.4c1.3,0,1.9,0.7,1.6,2l-26.4,123.7c-0.1,1.1-0.8,1.6-2,1.6h-6.7
		C452,684.9,451.3,684.3,451.1,683.3z"/>
	<path d="M507.8,572.6c-1.5-1.5-2.2-3.4-2.2-5.7c0-2.3,0.7-4.2,2.2-5.6c1.5-1.5,3.2-2.2,5.3-2.2c2.2,0,3.9,0.7,5.3,2.2
		c1.3,1.5,2,3.3,2,5.6c0,2.4-0.7,4.4-2,5.8c-1.3,1.5-3.1,2.2-5.3,2.2C511,574.9,509.3,574.1,507.8,572.6z M508.4,683.1v-88
		c0-1.2,0.6-1.8,1.8-1.8h6c1.2,0,1.8,0.6,1.8,1.8v88c0,1.2-0.6,1.8-1.8,1.8h-6C509,684.9,508.4,684.3,508.4,683.1z"/>
	<path d="M578.9,594.3c0.8,0.5,1.2,1.3,0.9,2.4l-1.5,6.2c-0.4,1.1-1.2,1.4-2.4,0.9c-1.9-0.7-4.3-1-7.1-0.9
		c-4.9,0.1-8.8,2.5-11.8,7.3c-3,4.7-4.5,10.5-4.5,17.5v55.5c0,1.2-0.6,1.8-1.8,1.8h-6c-1.2,0-1.8-0.6-1.8-1.8v-88
		c0-1.2,0.6-1.8,1.8-1.8h6c1.2,0,1.8,0.6,1.8,1.8v11.3c0,0.4,0.1,0.5,0.4,0.5c0.2,0,0.4-0.2,0.5-0.5c1.7-4.4,4-7.8,7-10.2
		c3-2.4,6.5-3.6,10.6-3.6C574.2,592.5,576.8,593.1,578.9,594.3z"/>
	<path d="M622.4,600.9h-14.5c-0.5,0-0.7,0.2-0.7,0.7v58.6c0,6.1,1,10.3,3.1,12.6c2.1,2.4,5.3,3.5,9.8,3.5h1.8c1.2,0,1.8,0.6,1.8,1.8
		v4.9c0,1.2-0.6,1.8-1.8,1.8h-3.6c-6.8,0-11.9-1.6-15.4-4.7c-3.5-3.2-5.2-9-5.2-17.6v-60.9c0-0.5-0.2-0.7-0.7-0.7h-7.5
		c-1.2,0-1.8-0.6-1.8-1.8v-4c0-1.2,0.6-1.8,1.8-1.8h7.5c0.5,0,0.7-0.2,0.7-0.7v-20.4c0-1.2,0.6-1.8,1.8-1.8h5.8
		c1.2,0,1.8,0.6,1.8,1.8v20.4c0,0.5,0.2,0.7,0.7,0.7h14.5c1.2,0,1.8,0.6,1.8,1.8v4C624.2,600.3,623.6,600.9,622.4,600.9z"/>
	<path d="M685.9,593.2h6c1.2,0,1.8,0.6,1.8,1.8v88c0,1.2-0.6,1.8-1.8,1.8h-6c-1.2,0-1.8-0.6-1.8-1.8v-6.5c0-0.4-0.1-0.6-0.3-0.6
		c-0.2-0.1-0.4,0-0.6,0.3c-3.9,6.7-10.1,10-18.6,10c-7.3,0-13-2.2-17.3-6.6c-4.2-4.4-6.4-11.1-6.4-19.9V595c0-1.2,0.6-1.8,1.8-1.8h6
		c1.2,0,1.8,0.6,1.8,1.8v62.4c0,6.7,1.4,11.7,4.3,15.1c2.8,3.4,6.9,5.1,12.1,5.1c5.3,0,9.5-1.9,12.5-5.8c3-3.9,4.5-9.2,4.5-16V595
		C684.1,593.8,684.7,593.2,685.9,593.2z"/>
	<path d="M768.1,642.5h-41.8c-0.5,0-0.7,0.2-0.7,0.7v15.5c0,5.6,1.6,10.2,4.8,13.7c3.2,3.6,7.4,5.4,12.5,5.4c4.2,0,7.9-1.3,10.9-3.8
		c3-2.5,5-5.9,6-10c0.4-1.1,1-1.6,2-1.6l5.8,0.4c0.5,0,0.9,0.1,1.3,0.4c0.4,0.2,0.5,0.6,0.4,1.1v0.7c-1.2,6.7-4.1,11.9-8.7,15.7
		c-4.6,3.8-10.5,5.7-17.6,5.7c-8,0-14.5-2.5-19.5-7.5c-5-5-7.5-11.5-7.5-19.6v-40.2c0-8,2.5-14.5,7.5-19.6c5-5.1,11.5-7.6,19.5-7.6
		c8.1,0,14.7,2.5,19.6,7.6c5,5.1,7.5,11.6,7.5,19.6v21.6C769.9,641.9,769.3,642.5,768.1,642.5z M730.3,605.7
		c-3.2,3.6-4.8,8.2-4.8,13.9v13.8c0,0.5,0.2,0.7,0.7,0.7h33.3c0.5,0,0.7-0.2,0.7-0.7v-13.8c0-5.7-1.6-10.3-4.8-13.9
		c-3.2-3.6-7.4-5.4-12.6-5.4C737.7,600.3,733.5,602.1,730.3,605.7z"/>
	<path d="M794.2,679.3c-4.8-4.3-7.2-9.8-7.2-16.6v-1.1c0-1.2,0.6-1.8,1.8-1.8h5.6c1.2,0,1.8,0.5,1.8,1.5v1.5c0,4.4,1.6,8,4.7,10.9
		c3.2,2.9,7.2,4.4,12.2,4.4c4.8,0,8.8-1.5,11.7-4.5c3-3,4.5-6.8,4.5-11.5c0-3.5-0.9-6.4-2.5-8.7c-1.7-2.3-3.8-4.2-6.4-5.5
		c-2.5-1.4-6-3-10.4-4.8c-4.7-1.9-8.6-3.8-11.6-5.7c-3-1.9-5.6-4.5-7.7-7.8c-2.1-3.3-3.2-7.5-3.2-12.6c0-7.4,2.3-13.3,6.9-17.6
		c4.6-4.4,10.7-6.5,18.4-6.5c7.8,0,13.9,2.2,18.6,6.7c4.6,4.5,6.9,10.3,6.9,17.5v0.5c0,1.2-0.6,1.8-1.8,1.8H831
		c-0.5,0-0.9-0.2-1.3-0.5c-0.4-0.3-0.5-0.6-0.5-1v-1.3c0-4.5-1.5-8.2-4.5-11.3c-3-3-7-4.5-11.8-4.5c-4.9,0-8.7,1.5-11.6,4.5
		c-2.9,3-4.4,6.8-4.4,11.5c0,3.3,0.8,6,2.4,8.2c1.6,2.2,3.5,3.9,5.9,5.3c2.4,1.3,5.7,3,9.9,4.9c5,2.1,9.1,4,12.3,5.9
		c3.2,1.9,6,4.5,8.3,7.9c2.3,3.4,3.5,7.7,3.5,12.9c0,7.3-2.4,13.1-7.1,17.5c-4.7,4.4-11,6.6-18.7,6.6
		C805.3,685.8,799,683.6,794.2,679.3z"/>
</g>
<g>
	<linearGradient id="SVGID_1_" gradientUnits="userSpaceOnUse" x1="144.8095" y1="433.3317" x2="745.0156" y2="433.3317">
		<stop  offset="0" style="stop-color:#36A9E1"/>
		<stop  offset="0.3019" style="stop-color:#2D2E83"/>
		<stop  offset="1" style="stop-color:#2FAC66"/>
	</linearGradient>
	<path class="st1" d="M468,433.5l0.1-0.3C468,433.3,468,433.4,468,433.5L468,433.5z"/>
	<linearGradient id="SVGID_2_" gradientUnits="userSpaceOnUse" x1="144.8095" y1="284.7995" x2="745.0156" y2="284.7995">
		<stop  offset="0" style="stop-color:#36A9E1"/>
		<stop  offset="0.3019" style="stop-color:#2D2E83"/>
		<stop  offset="1" style="stop-color:#2FAC66"/>
	</linearGradient>
	<path class="st2" d="M248.3,268.1c-13.7,14-22.2,33.1-22.2,54.3c0,21.1,8.5,40.3,22.2,54.3l1.1,1.1c14,13.7,33.1,22.2,54.3,22.2
		c21.1,0,40.3-8.5,54.3-22.2c14.4-14.1,23.3-33.7,23.3-55.4v-62.9v-14.7v-47.9v-27.3h-39.2v27.3v47.9h-38.4
		C282,244.8,262.4,253.7,248.3,268.1z M342.1,322.4L342.1,322.4c0,0.1,0,0.3,0,0.4c0,23-18.6,41.6-41.6,41.6
		c-23,0-41.6-18.6-41.6-41.6c0-23,18.6-41.6,41.6-41.6c0.1,0,0.3,0,0.4,0v0h41.2V322.4z"/>
	<linearGradient id="SVGID_3_" gradientUnits="userSpaceOnUse" x1="144.8095" y1="322.793" x2="745.0156" y2="322.793">
		<stop  offset="0" style="stop-color:#36A9E1"/>
		<stop  offset="0.3019" style="stop-color:#2D2E83"/>
		<stop  offset="1" style="stop-color:#2FAC66"/>
	</linearGradient>
	<polygon class="st3" points="700.2,169.6 580.2,429.4 460.1,169.6 416.9,169.6 558.5,476 558.6,476 601.7,476 601.9,476 
		743.4,169.6 	"/>
	<linearGradient id="SVGID_4_" gradientUnits="userSpaceOnUse" x1="144.8095" y1="255.3112" x2="745.0156" y2="255.3112">
		<stop  offset="0" style="stop-color:#36A9E1"/>
		<stop  offset="0.3019" style="stop-color:#2D2E83"/>
		<stop  offset="1" style="stop-color:#2FAC66"/>
	</linearGradient>
	<polygon class="st4" points="661.7,169.6 618.5,169.6 560.9,294.3 582.5,341 	"/>
	<linearGradient id="SVGID_5_" gradientUnits="userSpaceOnUse" x1="144.8095" y1="322.3844" x2="745.0156" y2="322.3844">
		<stop  offset="0" style="stop-color:#36A9E1"/>
		<stop  offset="0.3019" style="stop-color:#2D2E83"/>
		<stop  offset="1" style="stop-color:#2FAC66"/>
	</linearGradient>
	<path class="st5" d="M417.1,327.3h-0.1C414.5,387.7,364.8,436,303.7,436c-62.6,0-113.4-50.8-113.4-113.4c0-1,0-1.9,0.1-2.9
		c1.2-48.9,33.4-90.1,77.6-104.7c11.2-3.7,23.2-5.8,35.6-5.8c1.8,0,3.6,0.1,5.4,0.1v-9.4v-30.5h-5.4c-42.8,0-81.4,17.6-109.1,45.9
		c-27,27.6-43.6,65.3-43.6,106.9c0,41.6,16.7,79.3,43.6,106.9l2.2,2.2c10.2,9.9,21.7,18.5,34.3,25.3c21.6,11.7,46.3,18.4,72.6,18.4
		c41.6,0,79.3-16.7,106.9-43.6c23.2-22.7,39.1-52.7,44.2-86.3l-37.7-81.6V327.3z"/>
</g>
</svg>
